<svg xmlns="http://www.w3.org/2000/svg">
    <symbol id="upArrow" viewBox="0 0 19 10" >
        <path d="M9.5 0L0 10H19L9.5 0Z" fill="#D9D9D9" />
    </symbol>
    <symbol id="downArrow" viewBox="0 0 19 10">
        <path d="M9.5 10L19 0L8.74228e-07 -1.66103e-06L9.5 10Z" fill="#D9D9D9" />
    </symbol>
    <symbol id="block" viewBox="0 0 12 12"
        xmlns="http://www.w3.org/2000/svg">
        <path d="M6 0C2.688 0 0 2.688 0 6C0 9.312 2.688 12 6 12C9.312 12 12 9.312 12 6C12 2.688 9.312 0 6 0ZM6 10.8C3.348 10.8 1.2 8.652 1.2 6C1.2 4.89 1.578 3.87 2.214 3.06L8.94 9.786C8.13 10.422 7.11 10.8 6 10.8ZM9.786 8.94L3.06 2.214C3.87 1.578 4.89 1.2 6 1.2C8.652 1.2 10.8 3.348 10.8 6C10.8 7.11 10.422 8.13 9.786 8.94Z" fill="#999999" />
    </symbol>
    <symbol id="comments" viewBox="0 0 15 15"
        xmlns="http://www.w3.org/2000/svg">
        <path d="M12.75 0H1.41667C0.6375 0 0 0.6375 0 1.41667V9.91667C0 10.6958 0.6375 11.3333 1.41667 11.3333H11.3333L14.1667 14.1667V1.41667C14.1667 0.6375 13.5292 0 12.75 0ZM11.3333 8.5H2.83333V7.08333H11.3333V8.5ZM11.3333 6.375H2.83333V4.95833H11.3333V6.375ZM11.3333 4.25H2.83333V2.83333H11.3333V4.25Z" fill="#C4C4C4" />
    </symbol>
    <symbol id="menu" viewBox="0 0 5 20"
        xmlns="http://www.w3.org/2000/svg">
        <circle cx="2.5" cy="2.5" r="2.5" fill="#D9D9D9" />
        <circle cx="2.5" cy="10" r="2.5" fill="#D9D9D9" />
        <circle cx="2.5" cy="17.5" r="2.5" fill="#D9D9D9" />
    </symbol>
    <symbol id="save" viewBox="0 0 20 20"
        xmlns="http://www.w3.org/2000/svg">
        <circle cx="10" cy="10" r="10" fill="#C4C4C4" />
        <path d="M6 7H5V14C5 14.55 5.45 15 6 15H13V14H6V7ZM14 5H8C7.45 5 7 5.45 7 6V12C7 12.55 7.45 13 8 13H14C14.55 13 15 12.55 15 12V6C15 5.45 14.55 5 14 5ZM13.5 9.5H11.5V11.5H10.5V9.5H8.5V8.5H10.5V6.5H11.5V8.5H13.5V9.5Z" fill="white" />
    </symbol>
    <symbol id="share" viewBox="0 0 20 20"
        xmlns="http://www.w3.org/2000/svg">
        <circle cx="10" cy="10" r="10" fill="#C4C4C4" />
        <path d="M11.6667 12.0683C11.3289 12.0683 11.0267 12.2189 10.7956 12.4548L7.62667 10.3715C7.64889 10.256 7.66667 10.1406 7.66667 10.0201C7.66667 9.8996 7.64889 9.78414 7.62667 9.66867L10.76 7.60542C11 7.85643 11.3156 8.01205 11.6667 8.01205C12.4044 8.01205 13 7.33936 13 6.50602C13 5.67269 12.4044 5 11.6667 5C10.9289 5 10.3333 5.67269 10.3333 6.50602C10.3333 6.62651 10.3511 6.74197 10.3733 6.85743L7.24 8.92068C7 8.66968 6.68444 8.51406 6.33333 8.51406C5.59556 8.51406 5 9.18675 5 10.0201C5 10.8534 5.59556 11.5261 6.33333 11.5261C6.68444 11.5261 7 11.3705 7.24 11.1195L10.4044 13.2078C10.3822 13.3133 10.3689 13.4237 10.3689 13.5341C10.3689 14.3424 10.9511 15 11.6667 15C12.3822 15 12.9644 14.3424 12.9644 13.5341C12.9644 12.7259 12.3822 12.0683 11.6667 12.0683Z" fill="white" />
    </symbol>
    <symbol id="warning" viewBox="0 0 14 12"
        xmlns="http://www.w3.org/2000/svg">
        <path d="M0 12H14L7 0L0 12ZM7.63636 10.1053H6.36364V8.8421H7.63636V10.1053ZM7.63636 7.57895H6.36364V5.05263H7.63636V7.57895Z" fill="#999999" />
    </symbol>
    <symbol id="avatar" viewBox="0 0 50 50" >
        <path d="M25 0C11.2 0 0 11.2 0 25C0 38.8 11.2 50 25 50C38.8 50 50 38.8 50 25C50 11.2 38.8 0 25 0ZM25 7.5C29.15 7.5 32.5 10.85 32.5 15C32.5 19.15 29.15 22.5 25 22.5C20.85 22.5 17.5 19.15 17.5 15C17.5 10.85 20.85 7.5 25 7.5ZM25 43C18.75 43 13.225 39.8 10 34.95C10.075 29.975 20 27.25 25 27.25C29.975 27.25 39.925 29.975 40 34.95C36.775 39.8 31.25 43 25 43Z" fill="#D9D9D9"/>
    </symbol>
</svg>